<svg viewBox="0 0 1024 1024" xmlns="http://www.w3.org/2000/svg" width="20" height="20">
  <path d="M742.826667 398.890667l-28.16-28.16v-102.826667a246.101333 246.101333 0 0 0 42.666666-139.946667 32 32 0 0 0-32-32H298.666667a32 32 0 0 0-32 32 245.973333 245.973333 0 0 0 42.666666 139.989334v102.741333l-28.16 28.16a338.773333 338.773333 0 0 0-99.84 241.109333c0 17.664 14.336 32 32 32h266.666667V896a32 32 0 1 0 64 0v-224H810.666667a32 32 0 0 0 32-32 338.688 338.688 0 0 0-99.84-241.109333z" fill="#616161"/>
</svg>